<?xml version="1.0" encoding="iso-8859-1"?>
<!-- Generator: Adobe Illustrator 19.0.0, SVG Export Plug-In . SVG Version: 6.00 Build 0)  -->
<svg version="1.1" id="Capa_1" xmlns="http://www.w3.org/2000/svg" xmlns:xlink="http://www.w3.org/1999/xlink" x="0px" y="0px"
	 viewBox="0 0 512 512" style="enable-background:new 0 0 512 512;" xml:space="preserve">
<g>
	<g>
		<g>
			<path d="M0,0v512h512V0H0z M480,480H32V32h448V480z"/>
			<path d="M176,240v48h32v-48c-0.004-15.055-7.07-29.236-19.088-38.304L256,134.624l67.088,67.072
				C311.07,210.764,304.004,224.945,304,240v48h32v-48c0-8.837,7.163-16,16-16h38.624L256,89.376L121.376,224H160
				C168.837,224,176,231.163,176,240z"/>
			<rect x="304" y="384" width="32" height="32"/>
			<rect x="304" y="320" width="32" height="32"/>
			<rect x="176" y="384" width="32" height="32"/>
			<rect x="176" y="320" width="32" height="32"/>
		</g>
	</g>
</g>
<g>
</g>
<g>
</g>
<g>
</g>
<g>
</g>
<g>
</g>
<g>
</g>
<g>
</g>
<g>
</g>
<g>
</g>
<g>
</g>
<g>
</g>
<g>
</g>
<g>
</g>
<g>
</g>
<g>
</g>
</svg>
