<?xml version="1.0" encoding="iso-8859-1"?>
<!-- Generator: Adobe Illustrator 19.0.0, SVG Export Plug-In . SVG Version: 6.00 Build 0)  -->
<svg version="1.1" id="Capa_1" xmlns="http://www.w3.org/2000/svg" xmlns:xlink="http://www.w3.org/1999/xlink" x="0px" y="0px"
	 viewBox="0 0 502.624 502.624" style="enable-background:new 0 0 502.624 502.624;" xml:space="preserve">
<g>
	<g>
		<g>
			<rect x="310.624" y="107.312" width="32" height="32"/>
			<rect x="374.624" y="107.312" width="32" height="32"/>
			<polygon points="438.624,107.312 438.624,139.312 470.624,139.312 470.624,363.312 157.248,363.312 45.248,251.312 
				157.248,139.312 278.624,139.312 278.624,107.312 144,107.312 0,251.312 144,395.312 502.624,395.312 502.624,107.312 			"/>
			<polygon points="235.312,198.624 288,251.312 235.312,304 257.936,326.624 310.624,273.936 363.312,326.624 385.936,304 
				333.248,251.312 385.936,198.624 363.312,176 310.624,228.688 257.936,176 			"/>
			<rect x="118.624" y="235.312" width="32" height="32"/>
		</g>
	</g>
</g>
<g>
</g>
<g>
</g>
<g>
</g>
<g>
</g>
<g>
</g>
<g>
</g>
<g>
</g>
<g>
</g>
<g>
</g>
<g>
</g>
<g>
</g>
<g>
</g>
<g>
</g>
<g>
</g>
<g>
</g>
</svg>
