<?xml version="1.0" encoding="iso-8859-1"?>
<!-- Generator: Adobe Illustrator 19.0.0, SVG Export Plug-In . SVG Version: 6.00 Build 0)  -->
<svg version="1.1" id="Capa_1" xmlns="http://www.w3.org/2000/svg" xmlns:xlink="http://www.w3.org/1999/xlink" x="0px" y="0px"
	 viewBox="0 0 512 512" style="enable-background:new 0 0 512 512;" xml:space="preserve">
<g>
	<g>
		<path d="M481.596,90.907H30.404C13.353,90.907,0,104.261,0,121.311v269.378c0,16.765,13.639,30.404,30.404,30.404h451.192
			c16.765,0,30.404-13.639,30.404-30.404V121.311C512,104.546,498.361,90.907,481.596,90.907z M475.515,384.608H36.485V127.392
			h439.031V384.608z"/>
	</g>
</g>
<g>
	<g>
		<rect x="161.14" y="310.423" width="189.72" height="36.485"/>
	</g>
</g>
<g>
	<g>
		<rect x="73.577" y="163.876" width="71.145" height="36.485"/>
	</g>
</g>
<g>
	<g>
		<rect x="171.477" y="163.876" width="71.145" height="36.485"/>
	</g>
</g>
<g>
	<g>
		<rect x="269.378" y="163.876" width="71.145" height="36.485"/>
	</g>
</g>
<g>
	<g>
		<rect x="367.278" y="163.876" width="71.139" height="36.485"/>
	</g>
</g>
<g>
	<g>
		<rect x="73.577" y="240.494" width="71.145" height="36.485"/>
	</g>
</g>
<g>
	<g>
		<rect x="171.477" y="240.494" width="71.145" height="36.485"/>
	</g>
</g>
<g>
	<g>
		<rect x="269.378" y="240.494" width="71.145" height="36.485"/>
	</g>
</g>
<g>
	<g>
		<rect x="367.278" y="240.494" width="71.139" height="36.485"/>
	</g>
</g>
<g>
</g>
<g>
</g>
<g>
</g>
<g>
</g>
<g>
</g>
<g>
</g>
<g>
</g>
<g>
</g>
<g>
</g>
<g>
</g>
<g>
</g>
<g>
</g>
<g>
</g>
<g>
</g>
<g>
</g>
</svg>
