<?xml version="1.0" ?><svg id="icon" style="enable-background:new 0 0 512 512;" version="1.1" viewBox="0 0 512 512" xml:space="preserve" xmlns="http://www.w3.org/2000/svg" xmlns:xlink="http://www.w3.org/1999/xlink"><g><path d="M333.8935547,58.3233795c-2.2197266-1.2353516-4.9355469-1.1704102-7.09375,0.168457L159.8896484,162.0479889   c-2.0576172,1.2768555-3.3095703,3.5263672-3.3095703,5.9482422v9.230957H78.203125   c-15.8320313,0-28.7128906,12.8803711-28.7128906,28.7128906v100.1201019   c0,15.8325195,12.8808594,28.7128906,28.7128906,28.7128906h78.3769531v9.230957   c0,2.421875,1.2519531,4.6713867,3.3095703,5.9482422l166.9101563,103.5556641   c1.1289063,0.7001953,2.4082031,1.0517578,3.6904297,1.0517578c1.1708984,0,2.34375-0.293457,3.4033203-0.8833008   c2.2197266-1.2348633,3.5966797-3.5761719,3.5966797-6.1166992V64.4400787   C337.4902344,61.8995514,336.1132813,59.5582428,333.8935547,58.3233795z M156.5800781,320.7730713H78.203125   c-8.1123047,0-14.7128906-6.6000977-14.7128906-14.7128906V205.9400787c0-8.112793,6.6005859-14.7128906,14.7128906-14.7128906   h78.3769531V320.7730713z M323.4902344,434.9786377l-152.9101563-94.8696289V171.8912506l152.9101563-94.8701172V434.9786377z"/><path d="M455.5097656,249.0001373h-72.5136719c-3.8662109,0-7,3.1337891-7,6.9999847c0,3.8662109,3.1337891,7,7,7h72.5136719   c3.8662109,0,7-3.1337891,7-7C462.5097656,252.1339264,459.3759766,249.0001373,455.5097656,249.0001373z"/><path d="M377.1054688,211.3531647c1.2236328,0,2.4628906-0.3208008,3.5888672-0.9951172l62.2128906-37.2529297   c3.3173828-1.9863281,4.3964844-6.2851563,2.4101563-9.6020508s-6.2851563-4.3959961-9.6015625-2.409668l-62.2128906,37.2529297   c-3.3173828,1.9863281-4.3964844,6.2851563-2.4101563,9.6020508   C372.4042969,210.1388092,374.7246094,211.3531647,377.1054688,211.3531647z"/><path d="M442.9072266,338.8946533l-62.2128906-37.2529297c-3.3154297-1.9863281-7.6162109-0.9067383-9.6015625,2.409668   c-1.9863281,3.3168945-0.9072266,7.6157227,2.4101563,9.6020508l62.2128906,37.2529297   c1.1259766,0.6743164,2.3652344,0.9951172,3.5888672,0.9951172c2.3798828,0,4.7011719-1.2143555,6.0126953-3.4047852   C447.3037109,345.1798096,446.2246094,340.8809814,442.9072266,338.8946533z"/></g></svg>